<svg width="52" height="39" viewBox="0 0 52 39" fill="none" xmlns="http://www.w3.org/2000/svg">
<path d="M16.2457 6.2C20.2957 6.2 22.1207 8.825 21.6207 12.675L21.3707 13H14.8457C15.1207 14.175 15.9207 14.6 17.1457 14.6C18.6457 14.6 19.4957 14.25 20.6457 13.525L20.8957 13.575V17.15C19.8207 17.875 18.4957 18.325 16.6207 18.325C12.3957 18.325 10.1207 15.825 10.1207 12.3C10.1207 8.625 12.5707 6.2 16.2457 6.2ZM14.8457 10.625H17.3707C17.3957 9.8 16.9207 9.5 16.1957 9.5C15.5957 9.5 15.0707 9.825 14.8457 10.625ZM28.2148 6.2C30.2648 6.2 32.1148 6.75 33.4398 7.675L31.3898 10.625C30.6148 10 29.5398 9.55 28.5648 9.55C28.0648 9.55 27.8648 9.775 27.8648 9.975C27.8648 10.375 28.3148 10.6 29.9148 11.05C32.4148 11.75 33.4898 12.875 33.4898 14.55C33.4898 16.85 31.5148 18.325 27.9648 18.325C25.8648 18.325 24.3148 18.075 22.6148 17.475V13.35C23.8148 14.15 25.7898 14.925 27.7648 14.925C28.2898 14.925 28.4648 14.7 28.4648 14.475C28.4648 14.2 28.3398 14.025 26.7648 13.6C23.9148 12.825 22.7648 11.575 22.7648 9.775C22.7648 7.5 24.8898 6.2 28.2148 6.2ZM44.35 6.5V10.15H40.475V12.75C40.475 13.625 40.875 14.05 41.75 14.05C42.65 14.05 43.55 13.775 44.35 13.15L44.6 13.2V17.35C43.65 17.875 42.425 18.325 40.675 18.325C37.35 18.325 35.625 16.825 35.625 13.75V10.175H33.8V8.175L39.025 3.55H40.525V6.5H44.35ZM48.5408 0.675C50.2908 0.675 51.1158 1.725 51.1158 2.95C51.1158 4.175 50.2908 5.225 48.5408 5.225C46.7908 5.225 45.9658 4.175 45.9658 2.95C45.9658 1.725 46.7908 0.675 48.5408 0.675ZM50.9908 6.5V18H46.0908V6.5H50.9908ZM5.77598 26.5V28.25C6.50098 27.3 7.65098 26.2 9.55098 26.2C11.251 26.2 12.376 27.05 12.926 28.525C13.901 27.2 15.226 26.2 17.051 26.2C19.501 26.2 20.776 27.975 20.776 30.85V38H15.876V31.875C15.876 30.9 15.476 30.4 14.701 30.4C14.051 30.4 13.551 30.975 13.276 31.625V38H8.37598V31.875C8.37598 30.9 8.02598 30.4 7.30098 30.4C6.55098 30.4 6.00098 31.15 5.77598 31.9V38H0.875977V26.5H5.77598ZM29.3016 26.2C33.4766 26.2 36.2016 28.725 36.2016 32.25C36.2016 35.775 33.5266 38.325 29.3016 38.325C25.0766 38.325 22.3766 35.775 22.3766 32.25C22.3766 28.725 25.1266 26.2 29.3016 26.2ZM29.3016 29.85C28.1266 29.85 27.4266 30.575 27.4266 32.25C27.4266 33.95 28.1266 34.65 29.3016 34.65C30.4766 34.65 31.1766 33.95 31.1766 32.25C31.1766 30.575 30.4766 29.85 29.3016 29.85ZM44.4383 26.2C48.6133 26.2 51.3383 28.725 51.3383 32.25C51.3383 35.775 48.6633 38.325 44.4383 38.325C40.2133 38.325 37.5133 35.775 37.5133 32.25C37.5133 28.725 40.2633 26.2 44.4383 26.2ZM44.4383 29.85C43.2633 29.85 42.5633 30.575 42.5633 32.25C42.5633 33.95 43.2633 34.65 44.4383 34.65C45.6133 34.65 46.3133 33.95 46.3133 32.25C46.3133 30.575 45.6133 29.85 44.4383 29.85Z" fill="#FBFBFB"/>
</svg>
